# Blender v2.63 (sub 0) OBJ File: ''
# www.blender.org
mtllib boxInSocketHit.mtl
o Mesh.001_Cube.002
v 1.681465 -0.315049 -1.681464
v 1.681465 -0.315049 1.681465
v -1.681465 -0.315049 1.681464
v -1.681464 -0.315049 -1.681465
v -0.840732 0.315049 -0.840732
v 0.000000 0.315049 -0.840732
v 0.000000 1.059534 -0.840732
v -0.840732 1.059534 -0.840732
v 1.681464 0.315049 0.840733
v 1.681463 0.315049 1.681466
v 1.681464 0.315049 0.000001
v 1.681465 0.315049 -0.840731
v 1.681465 0.315049 -1.681464
v -0.840733 0.315049 1.681464
v -1.681465 0.315049 1.681464
v -0.000001 0.315049 1.681465
v 0.840731 0.315049 1.681465
v -1.681465 0.315049 0.840732
v -1.681465 0.315049 0.000000
v -1.681465 0.315049 -0.840732
v -1.681464 0.315049 -1.681465
v -0.840732 0.315049 -1.681464
v 0.000000 0.315049 -1.681464
v 0.840733 0.315049 -1.681464
v -1.681465 1.059534 1.681464
v -1.681465 1.059534 0.840732
v 0.840732 0.315049 -0.840732
v 0.000000 0.315049 0.000000
v 0.840732 0.315049 0.000001
v 1.681464 1.059534 0.000001
v 1.681464 1.059534 0.840733
v 0.000000 1.059534 -1.681464
v 0.840733 1.059534 -1.681464
v -0.840732 0.315049 0.000000
v -0.840733 0.315049 0.840732
v -0.000001 0.315049 0.840732
v 0.840732 1.059534 0.000001
v 0.840732 1.059534 -0.840732
v -1.681464 1.059534 -1.681465
v -0.840732 1.059534 -1.681464
v 1.681463 1.059534 1.681466
v 0.840731 1.059534 1.681465
v 0.840732 0.315049 0.840733
v 1.681465 1.059534 -0.840731
v -0.840733 1.059534 0.840732
v -0.000001 1.059534 0.840732
v 0.840732 1.059534 0.840733
v -0.840732 1.059534 0.000000
v -0.840733 1.059534 1.681464
v -0.000001 1.059534 1.681465
v -1.681465 1.059534 -0.840732
v -1.681465 1.059534 0.000000
v 1.681465 1.059534 -1.681464
vn 0.000000 -1.000000 -0.000000
vn 0.000000 -0.000000 1.000000
vn 1.000000 0.000003 0.000001
vn 1.000000 0.000002 0.000000
vn 1.000000 0.000005 0.000001
vn 1.000000 0.000000 0.000000
vn -0.000001 0.000002 1.000000
vn 0.000000 -0.000002 1.000000
vn -0.000001 0.000003 1.000000
vn -1.000000 0.000000 0.000000
vn -1.000000 -0.000005 -0.000001
vn 0.000001 0.000000 -1.000000
vn 0.000000 0.000002 -1.000000
vn 0.000000 0.000000 -1.000000
vn -0.000000 1.000000 0.000000
vn -0.000001 -0.000000 1.000000
vn 1.000000 -0.000000 0.000001
vn -1.000000 0.000000 -0.000001
usemtl Material.001
s off
f 1//1 2//1 3//1
f 5//2 6//2 7//2
f 9//3 10//3 2//3
f 11//4 9//4 2//4
f 12//5 11//5 2//5
f 13//6 12//6 2//6
f 1//6 13//6 2//6
f 14//2 15//2 3//2
f 16//7 14//7 3//7
f 17//8 16//8 3//8
f 10//9 17//9 3//9
f 2//8 10//8 3//8
f 3//10 15//10 18//10
f 3//10 18//10 19//10
f 3//10 19//10 20//10
f 3//11 20//11 21//11
f 3//10 21//10 4//10
f 4//12 21//12 22//12
f 4//13 22//13 23//13
f 4//13 23//13 24//13
f 13//13 4//13 24//13
f 13//14 1//14 4//14
f 18//10 15//10 25//10
f 27//15 6//15 28//15
f 9//6 11//6 30//6
f 24//14 23//14 32//14
f 28//15 34//15 36//15
f 27//10 29//10 37//10
f 22//12 21//12 39//12
f 17//16 10//16 41//16
f 29//15 28//15 36//15
f 44//17 30//17 11//17
f 45//14 46//14 36//14
f 46//12 47//12 43//12
f 6//15 5//15 34//15
f 31//17 41//17 10//17
f 8//6 48//6 34//6
f 45//15 26//15 25//15
f 47//15 46//15 50//15
f 8//15 51//15 52//15
f 46//15 45//15 49//15
f 48//15 52//15 45//15
f 31//15 47//15 41//15
f 30//15 37//15 47//15
f 44//15 38//15 30//15
f 53//15 33//15 44//15
f 33//15 32//15 38//15
f 32//15 40//15 8//15
f 40//15 39//15 51//15
f 49//2 25//2 15//2
f 42//2 50//2 16//2
f 40//14 32//14 23//14
f 51//18 39//18 21//18
f 47//10 37//10 29//10
f 26//10 52//10 19//10
f 14//16 16//16 50//16
f 12//6 13//6 53//6
f 6//2 27//2 38//2
f 35//17 34//17 48//17
f 20//10 19//10 52//10
f 33//14 53//14 13//14
f 4//1 1//1 3//1
f 8//2 5//2 7//2
f 26//10 18//10 25//10
f 29//15 27//15 28//15
f 31//6 9//6 30//6
f 33//14 24//14 32//14
f 34//15 35//15 36//15
f 38//10 27//10 37//10
f 40//12 22//12 39//12
f 42//16 17//16 41//16
f 43//15 29//15 36//15
f 12//17 44//17 11//17
f 35//14 45//14 36//14
f 36//12 46//12 43//12
f 28//15 6//15 34//15
f 9//17 31//17 10//17
f 5//6 8//6 34//6
f 49//15 45//15 25//15
f 42//15 47//15 50//15
f 48//15 8//15 52//15
f 50//15 46//15 49//15
f 52//15 26//15 45//15
f 47//15 42//15 41//15
f 31//15 30//15 47//15
f 38//15 37//15 30//15
f 33//15 38//15 44//15
f 32//15 7//15 38//15
f 7//15 32//15 8//15
f 8//15 40//15 51//15
f 14//2 49//2 15//2
f 17//2 42//2 16//2
f 22//14 40//14 23//14
f 20//18 51//18 21//18
f 43//10 47//10 29//10
f 18//10 26//10 19//10
f 49//16 14//16 50//16
f 44//6 12//6 53//6
f 7//2 6//2 38//2
f 45//17 35//17 48//17
f 51//10 20//10 52//10
f 24//14 33//14 13//14
o Mesh_Cube.001
v -0.761284 0.251782 -0.761284
v -0.761284 0.251782 0.761284
v -0.761284 1.774350 0.761284
v -0.761284 1.774350 -0.761284
v 0.761284 1.774350 -0.761284
v 0.761284 0.251782 -0.761284
v 0.761284 1.774350 0.761284
v 0.761284 0.251782 0.761284
usemtl 
s off
f 54//10 55//10 56//10
f 59//14 54//14 57//14
f 58//6 60//6 61//6
f 55//2 61//2 60//2
f 55//1 54//1 59//1
f 60//15 58//15 57//15
f 57//10 54//10 56//10
f 58//14 59//14 57//14
f 59//6 58//6 61//6
f 56//2 55//2 60//2
f 61//1 55//1 59//1
f 56//15 60//15 57//15
