# Blender v2.63 (sub 0) OBJ File: ''
# www.blender.org
mtllib boxInSocket.mtl
o Cube.001
v -0.761284 0.403279 0.761284
v -0.761284 0.403279 -0.761284
v 0.761284 0.403279 -0.761284
v 0.761284 0.403279 0.761284
v -0.761284 1.925847 0.761284
v -0.761284 1.925847 -0.761284
v 0.761284 1.925847 -0.761284
v 0.761284 1.925847 0.761284
vn -1.000000 -0.000000 0.000000
vn 0.000000 0.000000 -1.000000
vn 1.000000 -0.000000 0.000000
vn 0.000000 0.000000 1.000000
vn -0.000000 -1.000000 0.000000
vn -0.000000 1.000000 0.000000
usemtl 
s off
f 2//1 1//1 5//1 6//1
f 6//2 7//2 3//2 2//2
f 7//3 8//3 4//3 3//3
f 1//4 4//4 8//4 5//4
f 1//5 2//5 3//5 4//5
f 8//6 7//6 6//6 5//6
o Cube
v 1.681465 -0.315049 -1.681464
v 1.681465 -0.315049 1.681465
v -1.681465 -0.315049 1.681464
v -1.681464 -0.315049 -1.681465
v 1.681465 0.315049 -1.681464
v 1.681463 0.315049 1.681466
v -1.681465 0.315049 1.681464
v -1.681464 0.315049 -1.681465
v 1.681464 0.315049 0.000001
v 0.000000 0.315049 -1.681464
v -0.000001 0.315049 1.681465
v -1.681465 0.315049 -0.000000
v -0.000000 0.315049 0.000000
v 1.681464 0.315049 0.840733
v -0.840732 0.315049 -1.681464
v -0.840733 0.315049 1.681464
v -1.681465 0.315049 -0.840732
v 1.681465 0.315049 -0.840731
v 0.840733 0.315049 -1.681464
v 0.840731 0.315049 1.681465
v -1.681465 0.315049 0.840732
v -0.000001 0.315049 0.840732
v 0.000000 0.315049 -0.840732
v 0.840732 0.315049 0.000001
v -0.840732 0.315049 0.000000
v -0.840733 0.315049 0.840732
v 0.840732 0.315049 0.840733
v 0.840732 0.315049 -0.840732
v -0.840732 0.315049 -0.840732
v 1.681465 1.059534 -1.681464
v 1.681463 1.059534 1.681466
v -1.681465 1.059534 1.681464
v -1.681464 1.059534 -1.681465
v 1.681464 1.059534 0.000001
v 0.000000 1.059534 -1.681464
v -0.000001 1.059534 1.681465
v -1.681465 1.059534 -0.000000
v 1.681464 1.059534 0.840733
v -0.840732 1.059534 -1.681464
v -0.840733 1.059534 1.681464
v -1.681465 1.059534 -0.840732
v 1.681465 1.059534 -0.840731
v 0.840733 1.059534 -1.681464
v 0.840731 1.059534 1.681465
v -1.681465 1.059534 0.840732
v -0.000001 1.059534 0.840732
v 0.000000 1.059534 -0.840732
v 0.840732 1.059534 0.000001
v -0.840732 1.059534 0.000000
v -0.840733 1.059534 0.840732
v 0.840732 1.059534 0.840733
v 0.840732 1.059534 -0.840732
v -0.840732 1.059534 -0.840732
vn 1.000000 0.000002 0.000001
vn 1.000000 0.000002 0.000000
vn 1.000000 -0.000001 0.000000
vn -0.000001 0.000001 1.000000
vn -0.000000 -0.000002 1.000000
vn -1.000000 -0.000001 -0.000000
vn 0.000000 0.000001 -1.000000
vn 1.000000 0.000000 0.000001
vn -0.000001 0.000000 1.000000
usemtl Material
s off
f 9//5 10//5 11//5 12//5
f 37//4 31//4 55//4 61//4
f 22//7 14//7 10//7
f 17//8 22//8 10//8
f 26//7 17//7 10//7
f 13//7 26//7 10//7
f 9//9 13//9 10//9
f 24//4 15//4 11//4
f 19//10 24//10 11//10
f 28//4 19//4 11//4
f 14//4 28//4 11//4
f 10//11 14//11 11//11
f 11//12 15//12 29//12
f 11//1 29//1 20//1
f 11//12 20//12 25//12
f 11//1 25//1 16//1
f 11//12 16//12 12//12
f 12//13 16//13 23//13
f 12//13 23//13 18//13
f 12//13 18//13 27//13
f 13//2 12//2 27//2
f 13//13 9//13 12//13
f 29//1 15//1 40//1 53//1
f 36//6 31//6 21//6 32//6
f 22//3 17//3 42//3 46//3
f 27//2 18//2 43//2 51//2
f 21//6 33//6 34//6 30//6
f 36//1 32//1 56//1 60//1
f 23//2 16//2 41//2 47//2
f 28//4 14//4 39//4 52//4
f 32//6 21//6 30//6 35//6
f 50//14 42//14 17//14 26//14
f 58//2 54//2 30//2 34//2
f 54//2 59//2 35//2 30//2
f 31//6 37//6 33//6 21//6
f 46//14 39//14 14//14 22//14
f 61//3 57//3 33//3 37//3
f 58//6 53//6 40//6 48//6
f 59//6 54//6 44//6 52//6
f 61//6 49//6 45//6 57//6
f 54//6 58//6 48//6 44//6
f 57//6 45//6 53//6 58//6
f 46//6 59//6 52//6 39//6
f 42//6 56//6 59//6 46//6
f 50//6 60//6 56//6 42//6
f 38//6 51//6 60//6 50//6
f 51//6 43//6 55//6 60//6
f 43//6 47//6 61//6 55//6
f 47//6 41//6 49//6 61//6
f 48//4 40//4 15//4 24//4
f 52//4 44//4 19//4 28//4
f 47//2 43//2 18//2 23//2
f 49//1 41//1 16//1 25//1
f 59//1 56//1 32//1 35//1
f 53//1 45//1 20//1 29//1
f 24//15 19//15 44//15 48//15
f 26//14 13//14 38//14 50//14
f 31//4 36//4 60//4 55//4
f 34//3 33//3 57//3 58//3
f 25//1 20//1 45//1 49//1
f 51//2 38//2 13//2 27//2
