# Blender v2.63 (sub 0) OBJ File: ''
# www.blender.org
mtllib quadSocketBoxHit.mtl
o Cube.001
v -1.170000 0.830000 1.170000
v -1.170000 0.830000 -1.170000
v 1.170000 0.830000 -1.170000
v 1.170000 0.830000 1.170000
v -1.170000 3.170000 1.170000
v -1.170000 3.170000 -1.170000
v 1.170000 3.170000 -1.170000
v 1.170000 3.170000 1.170000
vn -1.000000 -0.000000 0.000000
vn 0.000000 0.000000 -1.000000
vn 1.000000 -0.000000 0.000000
vn 0.000000 0.000000 1.000000
vn -0.000000 -1.000000 0.000000
vn -0.000000 1.000000 0.000000
usemtl 
s off
f 2//1 1//1 5//1 6//1
f 6//2 7//2 3//2 2//2
f 7//3 8//3 4//3 3//3
f 1//4 4//4 8//4 5//4
f 1//5 2//5 3//5 4//5
f 8//6 7//6 6//6 5//6
o Cube
v 2.000000 0.000000 -2.000000
v 2.000000 0.000000 2.000000
v -2.000000 0.000000 2.000000
v -1.999999 0.000000 -2.000001
v 2.000001 1.000000 -1.999999
v 1.999999 1.000000 2.000001
v -2.000001 1.000000 1.999999
v -2.000000 1.000000 -2.000000
v 2.000000 1.000000 0.000001
v 0.000000 1.000000 -2.000000
v -0.000001 1.000000 2.000000
v -2.000000 1.000000 -0.000000
v -0.000000 1.000000 0.000000
v 1.999999 1.000000 1.000001
v -1.000000 1.000000 -2.000000
v -1.000001 1.000000 2.000000
v -2.000000 1.000000 -1.000000
v 2.000000 1.000000 -0.999999
v 1.000001 1.000000 -1.999999
v 0.999999 1.000000 2.000001
v -2.000000 1.000000 0.999999
v -0.000001 1.000000 1.000000
v 0.000000 1.000000 -1.000000
v 1.000000 1.000000 0.000001
v -1.000000 1.000000 0.000000
v -1.000001 1.000000 1.000000
v 0.999999 1.000000 1.000001
v 1.000000 1.000000 -0.999999
v -1.000000 1.000000 -1.000000
v 2.000001 2.000000 -1.999999
v 1.999999 2.000000 2.000001
v -2.000001 2.000000 1.999999
v -2.000000 2.000000 -2.000000
v 2.000000 2.000000 0.000001
v 0.000000 2.000000 -2.000000
v -0.000001 2.000000 2.000000
v -2.000000 2.000000 -0.000000
v 1.999999 2.000000 1.000001
v -1.000000 2.000000 -2.000000
v -1.000001 2.000000 2.000000
v -2.000000 2.000000 -1.000000
v 2.000000 2.000000 -0.999999
v 1.000001 2.000000 -1.999999
v 0.999999 2.000000 2.000001
v -2.000000 2.000000 0.999999
v -0.000001 2.000000 1.000000
v 0.000000 2.000000 -1.000000
v 1.000000 2.000000 0.000001
v -1.000000 2.000000 0.000000
v -1.000001 2.000000 1.000000
v 0.999999 2.000000 1.000001
v 1.000000 2.000000 -0.999999
v -1.000000 2.000000 -1.000000
vn 1.000000 0.000001 0.000001
vn 1.000000 0.000001 0.000000
vn 1.000000 0.000002 0.000001
vn 1.000000 -0.000001 0.000000
vn -0.000000 -0.000001 1.000000
vn -1.000000 -0.000001 -0.000000
vn 0.000000 0.000001 -1.000000
vn -1.000000 0.000000 -0.000001
vn 1.000000 0.000000 0.000001
usemtl Material
s off
f 9//5 10//5 11//5 12//5
f 53//1 45//1 20//1 29//1
f 22//7 14//7 10//7
f 17//8 22//8 10//8
f 26//9 17//9 10//9
f 13//8 26//8 10//8
f 9//10 13//10 10//10
f 24//4 15//4 11//4
f 19//4 24//4 11//4
f 28//4 19//4 11//4
f 14//4 28//4 11//4
f 10//11 14//11 11//11
f 11//1 15//1 29//1
f 11//1 29//1 20//1
f 11//1 20//1 25//1
f 11//1 25//1 16//1
f 11//12 16//12 12//12
f 12//13 16//13 23//13
f 12//13 23//13 18//13
f 12//13 18//13 27//13
f 13//2 12//2 27//2
f 13//13 9//13 12//13
f 59//1 56//1 32//1 35//1
f 36//6 31//6 21//6 32//6
f 49//1 41//1 16//1 25//1
f 47//2 43//2 18//2 23//2
f 21//6 33//6 34//6 30//6
f 52//4 44//4 19//4 28//4
f 48//4 40//4 15//4 24//4
f 37//4 31//4 55//4 61//4
f 32//6 21//6 30//6 35//6
f 29//1 15//1 40//1 53//1
f 22//3 17//3 42//3 46//3
f 27//2 18//2 43//2 51//2
f 31//6 37//6 33//6 21//6
f 36//14 32//14 56//14 60//14
f 23//2 16//2 41//2 47//2
f 58//6 53//6 40//6 48//6
f 59//6 54//6 44//6 52//6
f 61//6 49//6 45//6 57//6
f 54//6 58//6 48//6 44//6
f 57//6 45//6 53//6 58//6
f 46//6 59//6 52//6 39//6
f 42//6 56//6 59//6 46//6
f 50//6 60//6 56//6 42//6
f 38//6 51//6 60//6 50//6
f 51//6 43//6 55//6 60//6
f 43//6 47//6 61//6 55//6
f 47//6 41//6 49//6 61//6
f 24//4 19//4 44//4 48//4
f 26//3 13//3 38//3 50//3
f 31//4 36//4 60//4 55//4
f 34//3 33//3 57//3 58//3
f 25//1 20//1 45//1 49//1
f 51//2 38//2 13//2 27//2
f 61//3 57//3 33//3 37//3
f 46//15 39//15 14//15 22//15
f 54//2 59//2 35//2 30//2
f 58//2 54//2 30//2 34//2
f 50//15 42//15 17//15 26//15
f 28//4 14//4 39//4 52//4
