# Blender v2.63 (sub 0) OBJ File: 'socket.blend'
# www.blender.org
o inner_Cube.003
v -0.500000 -0.500000 0.500000
v -0.500000 -0.500000 -0.500000
v 0.500000 -0.500000 -0.500000
v 0.500000 -0.500000 0.500000
v -0.500000 0.500000 0.500000
v -0.500000 0.500000 -0.500000
v 0.500000 0.500000 -0.500000
v 0.500000 0.500000 0.500000
vn -1.000000 -0.000000 0.000000
vn 0.000000 0.000000 -1.000000
vn 1.000000 -0.000000 0.000000
vn 0.000000 0.000000 1.000000
vn -0.000000 -1.000000 0.000000
vn -0.000000 1.000000 0.000000
s off
f 2//1 1//1 5//1
f 2//1 5//1 6//1
f 6//2 7//2 3//2
f 6//2 3//2 2//2
f 7//3 8//3 4//3
f 7//3 4//3 3//3
f 1//4 4//4 8//4
f 1//4 8//4 5//4
f 1//5 2//5 3//5
f 1//5 3//5 4//5
f 8//6 7//6 6//6
f 8//6 6//6 5//6
o outer_Cube.001
v -2.000000 -2.000000 2.000000
v -2.000000 -2.000000 -2.000000
v 2.000000 -2.000000 -2.000000
v 2.000000 -2.000000 2.000000
v -2.000000 2.000000 2.000000
v -2.000000 2.000000 -2.000000
v 2.000000 2.000000 -2.000000
v 2.000000 2.000000 2.000000
v -1.000000 -1.000000 1.000000
v -1.000000 -1.000000 -1.000000
v 1.000000 -1.000000 -1.000000
v 1.000000 -1.000000 1.000000
v -1.000000 1.000000 1.000000
v -1.000000 1.000000 -1.000000
v 1.000000 1.000000 -1.000000
v 1.000000 1.000000 1.000000
s off
f 10//1 9//1 13//1
f 10//1 13//1 14//1
f 14//2 15//2 11//2
f 14//2 11//2 10//2
f 15//3 16//3 12//3
f 15//3 12//3 11//3
f 9//4 12//4 16//4
f 9//4 16//4 13//4
f 9//5 10//5 11//5
f 9//5 11//5 12//5
f 16//6 15//6 14//6
f 16//6 14//6 13//6
f 21//1 22//1 18//1
f 21//1 18//1 17//1
f 22//2 23//2 19//2
f 22//2 19//2 18//2
f 23//3 24//3 20//3
f 23//3 20//3 19//3
f 24//4 21//4 17//4
f 24//4 17//4 20//4
f 17//5 18//5 19//5
f 17//5 19//5 20//5
f 24//6 23//6 22//6
f 24//6 22//6 21//6
